<?xml version="1.0" encoding="UTF-8"?>
<!-- Generator: Adobe Illustrator 27.0.0, SVG Export Plug-In . SVG Version: 6.00 Build 0)  -->
<svg xmlns="http://www.w3.org/2000/svg" xmlns:xlink="http://www.w3.org/1999/xlink" version="1.1" id="Layer_1" x="0px" y="0px" viewBox="0 0 720.2 404.4" style="enable-background:new 0 0 720.2 404.4;" xml:space="preserve">
<style type="text/css">
	.st0{fill:#E5E1E6;}
</style>
<g>
	<path class="st0" d="M55.1,348.4v-25.7c0-6.2,1.5-10.9,4.6-14c3.1-3.1,7.1-4.7,12.2-4.7c4.9,0,8.9,1.5,11.9,4.5   c3.1,3,4.6,7.5,4.6,13.5v0.8H82v-0.6c0-4.2-0.9-7.3-2.7-9.3c-1.8-2-4.2-2.9-7.3-2.9c-3.4,0-6,1.1-7.8,3.3   c-1.7,2.2-2.6,5.6-2.6,10.2v25.1c0,8.4,3.4,12.7,10.3,12.7c3.1,0,5.5-1,7.3-2.9c1.8-2,2.7-5,2.7-9v-0.8h6.3v0.9   c0,5.9-1.5,10.4-4.5,13.3c-3,2.9-6.9,4.4-11.8,4.4c-5.1,0-9.1-1.6-12.2-4.7C56.7,359.2,55.1,354.6,55.1,348.4"></path>
	<path class="st0" d="M104.6,350.6l-3.9,15.7h-6.8l16.7-61.5h6l16.7,61.5h-6.9l-3.9-15.7H104.6z M113.6,314.6L106,345h15.1   L113.6,314.6z"></path>
	<path class="st0" d="M136.5,349.5h6.3c0.2,4.2,1.1,7.1,2.8,9c1.7,1.8,4.1,2.7,7.3,2.7c3.2,0,5.6-0.9,7.2-2.7   c1.6-1.8,2.4-4.6,2.4-8.3c0-3.3-0.7-5.7-2.1-7.4c-1.4-1.7-3.9-3.2-7.5-4.7l-3.6-1.4c-4-1.6-7.1-3.7-9.1-6.1c-2-2.5-3-5.8-3-10.1   c0-5,1.4-9,4.2-11.9c2.8-3,6.7-4.5,11.6-4.5c4.7,0,8.4,1.4,11.1,4.1c2.7,2.8,4.2,6.9,4.5,12.4h-6.1c-0.4-7.2-3.6-10.8-9.5-10.8   c-3.1,0-5.4,0.9-6.9,2.7c-1.5,1.8-2.3,4.3-2.3,7.6c0,2.9,0.7,5.2,2.1,6.9c1.4,1.7,3.8,3.1,7.2,4.5l3.7,1.4c4.1,1.6,7.2,3.7,9.3,6.3   c2.1,2.6,3.1,6.3,3.1,11c0,5.4-1.4,9.6-4.2,12.5c-2.8,2.9-6.8,4.4-12.1,4.4c-5.2,0-9.2-1.5-11.9-4.5   C138,359.5,136.6,355.2,136.5,349.5"></path>
	<path class="st0" d="M183.6,350.6l-3.9,15.7h-6.8l16.7-61.5h6l16.7,61.5h-6.9l-3.9-15.7H183.6z M192.6,314.6l-7.6,30.4h15.1   L192.6,314.6z"></path>
	<path class="st0" d="M250.1,304.8c5,0,9,1.5,12,4.6c3,3.1,4.5,7.8,4.5,14v24.2c0,6.2-1.5,10.8-4.5,13.9c-3,3.1-7,4.7-12,4.7h-15.9   v-61.5H250.1z M257.5,357.3c1.8-2.1,2.6-5.3,2.6-9.5v-23.7c0-4.5-0.9-7.9-2.6-10.1c-1.7-2.2-4.2-3.3-7.5-3.3h-9.4v49.9h9.4   C253.3,360.5,255.8,359.4,257.5,357.3"></path>
	<polygon class="st0" points="283.1,332.1 301.1,332.1 301.1,338 283.1,338 283.1,360.5 304,360.5 304,366.3 276.6,366.3    276.6,304.8 304,304.8 304,310.6 283.1,310.6  "></polygon>
	<polygon class="st0" points="319.1,304.8 319.1,360.5 339.9,360.5 339.9,366.3 312.6,366.3 312.6,304.8  "></polygon>
	<polygon class="st0" points="369.5,304.8 369.5,360.5 390.3,360.5 390.3,366.3 363,366.3 363,304.8  "></polygon>
	<path class="st0" d="M404,350.6l-3.9,15.7h-6.8l16.7-61.5h6l16.7,61.5h-6.9l-3.9-15.7H404z M413,314.6l-7.6,30.4h15.1L413,314.6z"></path>
	<path class="st0" d="M439,348.4v-25.7c0-6.2,1.5-10.9,4.6-14c3.1-3.1,7.1-4.7,12.2-4.7c4.9,0,8.9,1.5,12,4.4   c3.1,2.9,4.6,7.1,4.6,12.6v1.1h-6.5V321c0-3.6-0.9-6.3-2.7-8.2c-1.8-1.9-4.3-2.9-7.3-2.9c-6.8,0-10.2,4.5-10.2,13.5v25.1   c0,8.4,3.4,12.7,10.2,12.7c3.3,0,5.8-1,7.5-3.1c1.7-2,2.6-5.2,2.6-9.3v-8.6h-10.2v-5.4h16.7v13.7c0,6.2-1.5,10.8-4.5,13.9   c-3,3.1-7,4.6-12,4.6c-5,0-9.1-1.6-12.2-4.7C440.5,359.2,439,354.6,439,348.4"></path>
	<path class="st0" d="M481.6,348.4v-25.7c0-6.3,1.5-11,4.5-14.1c3-3.1,7.1-4.6,12.1-4.6c5,0,9.1,1.5,12.1,4.6   c3,3.1,4.5,7.8,4.5,14.1v25.7c0,6.2-1.5,10.8-4.6,13.9c-3.1,3.1-7.1,4.7-12.1,4.7c-5,0-9.1-1.6-12.1-4.7   C483.1,359.2,481.6,354.6,481.6,348.4 M508.4,348.5v-25.1c0-4.5-0.9-7.9-2.6-10.1c-1.7-2.2-4.2-3.3-7.5-3.3c-3.4,0-6,1.1-7.7,3.3   c-1.7,2.2-2.5,5.6-2.5,10.2v25.1c0,8.4,3.4,12.7,10.2,12.7c3.2,0,5.7-1.1,7.4-3.2C507.5,355.8,508.4,352.7,508.4,348.5"></path>
	<polygon class="st0" points="695.1,236 695.1,255.7 526.7,257.1 526.6,257.1 463.8,259.2 463.8,240 526.6,236  "></polygon>
	<polygon class="st0" points="347.9,236.3 347.9,263.7 147.2,250.1 55.1,249.5 55.1,218.3 147.2,216.3  "></polygon>
	<polygon class="st0" points="463.8,193.9 463.8,216.5 269.8,201.6 55.1,205.5 55.1,182.7 269.8,176.5  "></polygon>
	<polygon class="st0" points="695,154.1 695,173.3 511.5,164.7 385.9,169.5 385.9,152.5 418.4,150.2 199.3,129.1 199.3,129    94.5,130.9 94.5,119.8 199.3,116.7 474.1,146.3 511.5,143.7  "></polygon>
	<polygon class="st0" points="502,95.2 502,113.6 188,68.6 188,68.3 55.2,71.5 55.2,52.6 188,47.5  "></polygon>
</g>
</svg>
